<svg aria-hidden="true" style="position: absolute; width: 0; height: 0; overflow: hidden;" version="1.1" xmlns="http://www.w3.org/2000/svg" xmlns:xlink="http://www.w3.org/1999/xlink">
<defs>
<symbol id="icon-airbnb" viewBox="0 0 32 32">
<path d="M15.997 24.356c-1.803-2.261-2.863-4.243-3.216-5.94-0.351-1.368-0.212-2.463 0.388-3.285 0.636-0.947 1.583-1.407 2.827-1.407s2.189 0.46 2.825 1.416c0.595 0.813 0.744 1.909 0.381 3.285-0.388 1.731-1.447 3.712-3.205 5.931zM28.793 25.876c-0.247 1.66-1.379 3.037-2.933 3.709-3.001 1.307-5.973-0.777-8.517-3.604 4.207-5.267 4.984-9.367 3.179-12.019-1.060-1.52-2.577-2.26-4.524-2.26-3.924 0-6.081 3.32-5.233 7.173 0.493 2.085 1.801 4.456 3.887 7.107-1.307 1.445-2.545 2.473-3.64 3.109-0.848 0.459-1.66 0.743-2.437 0.811-3.569 0.532-6.368-2.931-5.097-6.503 0.176-0.46 0.527-1.307 1.127-2.615l0.033-0.071c1.951-4.235 4.32-9.048 7.043-14.387l0.071-0.176 0.773-1.487c0.6-1.096 0.847-1.587 1.801-2.191 0.46-0.279 1.025-0.419 1.66-0.419 1.272 0 2.263 0.743 2.687 1.341 0.211 0.319 0.46 0.743 0.776 1.271l0.744 1.451 0.107 0.212c2.72 5.336 5.092 10.14 7.035 14.385l0.035 0.033 0.711 1.627 0.424 1.019c0.324 0.816 0.392 1.628 0.292 2.481zM30.419 22.691c-0.248-0.777-0.672-1.695-1.2-2.791v-0.040c-2.516-5.34-4.853-10.14-7.072-14.453l-0.148-0.216c-1.581-3.243-2.713-5.191-6.001-5.191-3.251 0-4.632 2.259-6.044 5.196l-0.108 0.213c-2.224 4.312-4.56 9.119-7.068 14.456v0.071l-0.744 1.625c-0.28 0.672-0.423 1.024-0.46 1.129-1.8 4.949 1.909 9.296 6.4 9.296 0.036 0 0.176 0 0.352-0.036h0.496c2.333-0.284 4.737-1.767 7.176-4.421 2.437 2.651 4.844 4.137 7.173 4.421h0.496c0.176 0.036 0.317 0.036 0.352 0.036 4.491 0.004 8.2-4.347 6.4-9.296z"></path>
</symbol>
<symbol id="icon-x" viewBox="0 0 32 32">
<path d="M24.325 3h4.411l-9.636 11.013 11.336 14.987h-8.876l-6.952-9.089-7.955 9.089h-4.413l10.307-11.78-10.875-14.22h9.101l6.284 8.308zM22.777 26.36h2.444l-15.776-20.859h-2.623z"></path>
</symbol>
<symbol id="icon-instagram" viewBox="0 0 32 32">
<path d="M16 0c-4.347 0-4.889 0.020-6.596 0.096-1.704 0.080-2.864 0.348-3.884 0.744-1.052 0.408-1.945 0.956-2.835 1.845s-1.439 1.781-1.845 2.835c-0.396 1.020-0.665 2.18-0.744 3.884-0.080 1.707-0.096 2.249-0.096 6.596s0.020 4.889 0.096 6.596c0.080 1.703 0.348 2.864 0.744 3.884 0.408 1.051 0.956 1.945 1.845 2.835 0.889 0.888 1.781 1.439 2.835 1.845 1.021 0.395 2.181 0.665 3.884 0.744 1.707 0.080 2.249 0.096 6.596 0.096s4.889-0.020 6.596-0.096c1.703-0.080 2.864-0.349 3.884-0.744 1.051-0.408 1.945-0.957 2.835-1.845 0.888-0.889 1.439-1.78 1.845-2.835 0.395-1.020 0.665-2.181 0.744-3.884 0.080-1.707 0.096-2.249 0.096-6.596s-0.020-4.889-0.096-6.596c-0.080-1.703-0.349-2.865-0.744-3.884-0.408-1.052-0.957-1.945-1.845-2.835-0.889-0.889-1.78-1.439-2.835-1.845-1.020-0.396-2.181-0.665-3.884-0.744-1.707-0.080-2.249-0.096-6.596-0.096zM16 2.88c4.271 0 4.78 0.021 6.467 0.095 1.56 0.073 2.407 0.332 2.969 0.553 0.749 0.289 1.28 0.636 1.843 1.195 0.559 0.56 0.905 1.092 1.195 1.841 0.219 0.563 0.48 1.409 0.551 2.969 0.076 1.688 0.093 2.195 0.093 6.467s-0.020 4.78-0.099 6.467c-0.081 1.56-0.341 2.407-0.561 2.969-0.299 0.749-0.639 1.28-1.199 1.843-0.559 0.559-1.099 0.905-1.84 1.195-0.56 0.219-1.42 0.48-2.98 0.551-1.699 0.076-2.199 0.093-6.479 0.093-4.281 0-4.781-0.020-6.479-0.099-1.561-0.081-2.421-0.341-2.981-0.561-0.759-0.299-1.28-0.639-1.839-1.199-0.561-0.559-0.92-1.099-1.2-1.84-0.22-0.56-0.479-1.42-0.56-2.98-0.060-1.68-0.081-2.199-0.081-6.459 0-4.261 0.021-4.781 0.081-6.481 0.081-1.56 0.34-2.419 0.56-2.979 0.28-0.76 0.639-1.28 1.2-1.841 0.559-0.559 1.080-0.919 1.839-1.197 0.56-0.221 1.401-0.481 2.961-0.561 1.7-0.060 2.2-0.080 6.479-0.080zM16 7.784c-4.54 0-8.216 3.68-8.216 8.216 0 4.54 3.68 8.216 8.216 8.216 4.54 0 8.216-3.68 8.216-8.216 0-4.54-3.68-8.216-8.216-8.216zM16 21.333c-2.947 0-5.333-2.387-5.333-5.333s2.387-5.333 5.333-5.333 5.333 2.387 5.333 5.333-2.387 5.333-5.333 5.333zM26.461 7.46c0 1.060-0.861 1.92-1.92 1.92-1.060 0-1.92-0.861-1.92-1.92s0.861-1.919 1.92-1.919c1.057-0.001 1.92 0.86 1.92 1.919z"></path>
</symbol>
<symbol id="icon-facebook" viewBox="0 0 32 32">
<path d="M31.997 15.999c0-8.836-7.163-15.999-15.999-15.999s-15.999 7.163-15.999 15.999c0 7.985 5.851 14.604 13.499 15.804v-11.18h-4.062v-4.625h4.062v-3.525c0-4.010 2.389-6.225 6.043-6.225 1.75 0 3.581 0.313 3.581 0.313v3.937h-2.017c-1.987 0-2.607 1.233-2.607 2.498v3.001h4.437l-0.709 4.625h-3.728v11.18c7.649-1.2 13.499-7.819 13.499-15.804z"></path>
</symbol>
</defs>
</svg>
